<svg xmlns="http://www.w3.org/2000/svg" viewBox="0 0 32 32">
  <rect width="32" height="32" rx="6" fill="#1a1a2e"/>
  <g transform="translate(4, 4)" stroke="#f59e0b" stroke-width="1.5" stroke-linecap="round" stroke-linejoin="round" fill="none">
    <path d="M7.21 15 2.66 7.14a2 2 0 0 1 .13-2.2L4.4 2.8A2 2 0 0 1 6 2h12a2 2 0 0 1 1.6.8l1.6 2.14a2 2 0 0 1 .14 2.2L16.79 15"/>
    <path d="M11 12 5.12 2.2"/>
    <path d="m13 12 5.88-9.8"/>
    <path d="M8 7h8"/>
    <circle cx="12" cy="17" r="5"/>
    <path d="M12 18v-2h-.5"/>
  </g>
</svg>
